<?xml version="1.0" encoding="UTF-8"?>
<svg version="1.1" xmlns="http://www.w3.org/2000/svg" width="128" height="128">
<path d="M0 0 C0.60328125 0.08378906 1.2065625 0.16757812 1.828125 0.25390625 C3.02695313 0.40666016 3.02695313 0.40666016 4.25 0.5625 C5.03890625 0.66691406 5.8278125 0.77132813 6.640625 0.87890625 C8.92925949 1.1164144 8.92925949 1.1164144 10.80053711 0.5246582 C27.21570156 -3.39100263 45.53342907 -0.23437871 59.8125 8.25 C73.97815534 17.93446602 73.97815534 17.93446602 76 24 C78.97 24.33 81.94 24.66 85 25 C86 29 86 29 85.3125 32.5 C84.55240673 37.50160139 86.25089386 41.52248956 87.9921875 46.16796875 C93.03540156 60.33979121 90.76691661 77.88607448 84.74291992 91.30078125 C81.27413331 98.59157549 76.78182454 104.37523691 71 110 C70.31292969 110.70769531 69.62585938 111.41539063 68.91796875 112.14453125 C56.4912013 124.20241506 40.49448189 128.53363651 23.5715332 128.41992188 C6.37317458 127.91508719 -9.00173346 121.26114736 -21.20703125 109.07421875 C-34.32449531 95.12704916 -38.73389381 79.27751787 -38.52416992 60.43041992 C-38.26729485 52.33147375 -37.47768657 45.41039755 -34 38 C-33.36384766 36.58460937 -33.36384766 36.58460937 -32.71484375 35.140625 C-27.08184031 23.78047321 -17.45278405 13.21984704 -6.125 7.375 C-3.04495427 5.77931366 -2.17402747 5.31324944 -0.4375 2.1875 C-0.293125 1.465625 -0.14875 0.74375 0 0 Z " fill="#39D265" transform="translate(38,0)"/>
<path d="M0 0 C1.47146484 0.24556641 1.47146484 0.24556641 2.97265625 0.49609375 C7.14118966 1.09159852 11.23401136 1.11249575 15.4375 1.0625 C16.53481445 1.05573242 16.53481445 1.05573242 17.65429688 1.04882812 C19.43623419 1.03718148 21.21812863 1.01925191 23 1 C20.10933941 14.6332574 20.10933941 14.6332574 17 21 C17.99 20.67 18.98 20.34 20 20 C21.55421729 19.91893314 23.11167027 19.89243102 24.66796875 19.90234375 C25.56064453 19.90556641 26.45332031 19.90878906 27.37304688 19.91210938 C28.30181641 19.92048828 29.23058594 19.92886719 30.1875 19.9375 C31.12787109 19.94201172 32.06824219 19.94652344 33.03710938 19.95117188 C35.35813712 19.96295374 37.67903644 19.97940442 40 20 C40.19335938 19.28972656 40.38671875 18.57945313 40.5859375 17.84765625 C40.84632812 16.92855469 41.10671875 16.00945313 41.375 15.0625 C41.75785156 13.68771484 41.75785156 13.68771484 42.1484375 12.28515625 C43 10 43 10 45 9 C45.63440928 10.47515555 46.25690827 11.95543332 46.875 13.4375 C47.22304687 14.26121094 47.57109375 15.08492187 47.9296875 15.93359375 C53.77211269 32.6719287 52.43854434 51.22772762 44.875 67.125 C41.54310725 73.69750076 37.26252377 78.88043104 32 84 C31.31292969 84.70769531 30.62585938 85.41539063 29.91796875 86.14453125 C17.4912013 98.20241506 1.49448189 102.53363651 -15.4284668 102.41992188 C-33.55437923 101.88786009 -48.13402216 94.57148699 -61 82 C-52.48087538 55.24874212 -52.48087538 55.24874212 -48 42 C-48.63808594 41.81824219 -49.27617188 41.63648438 -49.93359375 41.44921875 C-51.17302734 41.07216797 -51.17302734 41.07216797 -52.4375 40.6875 C-53.26121094 40.44386719 -54.08492187 40.20023438 -54.93359375 39.94921875 C-55.61550781 39.63597656 -56.29742187 39.32273438 -57 39 C-58.13087014 35.60738958 -57.86514295 34.83482243 -56.78515625 31.55078125 C-56.51123047 30.70322266 -56.23730469 29.85566406 -55.95507812 28.98242188 C-55.66052734 28.10134766 -55.36597656 27.22027344 -55.0625 26.3125 C-54.62647461 24.97348633 -54.62647461 24.97348633 -54.18164062 23.60742188 C-53.46230013 21.40223052 -52.73483328 19.20006742 -52 17 C-47.36195179 17.50104462 -44.56196175 18.6195816 -40.8125 21.375 C-39.97332031 21.98085938 -39.13414063 22.58671875 -38.26953125 23.2109375 C-34.40036214 26.26098819 -34.40036214 26.26098819 -33 28 C-33.11803787 34.37404508 -35.2193602 39.983832 -37.35546875 45.94921875 C-38.11595653 49.54886092 -37.88587541 50.87080506 -36 54 C-33.84818759 56.05861192 -33.84818759 56.05861192 -31.25 57.75 C-30.40953125 58.34296875 -29.5690625 58.9359375 -28.703125 59.546875 C-25.75723403 61.13050425 -23.30571747 61.63269806 -20 62 C-19.75878418 61.18994507 -19.75878418 61.18994507 -19.51269531 60.36352539 C-18.77573159 57.92423853 -18.01329539 55.4936692 -17.25 53.0625 C-16.87101562 51.78729492 -16.87101562 51.78729492 -16.484375 50.48632812 C-16.2265625 49.67744141 -15.96875 48.86855469 -15.703125 48.03515625 C-15.47270508 47.2862915 -15.24228516 46.53742676 -15.00488281 45.76586914 C-14 44 -14 44 -12.19140625 43.25390625 C-9.84872874 42.98247303 -7.59324493 42.88722279 -5.234375 42.90234375 C-4.34492187 42.90556641 -3.45546875 42.90878906 -2.5390625 42.91210938 C-1.61867187 42.92048828 -0.69828125 42.92886719 0.25 42.9375 C1.18585938 42.94201172 2.12171875 42.94652344 3.0859375 42.95117188 C5.39069041 42.96293082 7.69531227 42.97936574 10 43 C8.11380178 50.03645577 6.13072305 57.03359344 4 64 C4.75796875 63.75636719 4.75796875 63.75636719 5.53125 63.5078125 C8.87997208 62.81899309 12.08341354 62.86827444 15.5 62.875 C17.46453125 62.87113281 17.46453125 62.87113281 19.46875 62.8671875 C22.22235924 62.97075245 24.40352847 63.16541986 27 64 C27.4021875 62.14375 27.4021875 62.14375 27.8125 60.25 C29.09357816 54.47132371 30.54399417 48.73666298 32 43 C27.5621439 41.88834768 23.23043614 41.88472237 18.6875 41.9375 C17.94693359 41.94201172 17.20636719 41.94652344 16.44335938 41.95117188 C14.62887101 41.96287825 12.81442466 41.98081102 11 42 C11.58662104 37.15265772 12.57680347 32.71129236 14.0625 28.0625 C14.42472656 26.91910156 14.78695312 25.77570312 15.16015625 24.59765625 C15.57587891 23.31181641 15.57587891 23.31181641 16 22 C14.6696875 22.24169922 14.6696875 22.24169922 13.3125 22.48828125 C6.60198545 23.52492913 0.35054613 23.67391416 -6 21 C-5.34065816 16.13451192 -4.03428754 11.74092364 -2.4375 7.125 C-2.08655273 6.09246094 -2.08655273 6.09246094 -1.72851562 5.0390625 C-1.15647501 3.35796355 -0.57881544 1.67877837 0 0 Z " fill="#39D265" transform="translate(77,26)"/>
<path d="M0 0 C1.36125 1.299375 1.36125 1.299375 2.75 2.625 C7.58395769 6.81110769 13.23583661 9.33088001 19 12 C17.47536437 19.49612516 15.31993846 26.71359134 13 34 C17.85729645 34.97299156 22.4500625 35.12038805 27.375 35.0625 C28.11105469 35.05798828 28.84710938 35.05347656 29.60546875 35.04882812 C31.40368158 35.03715142 33.20185197 35.01922011 35 35 C33.76583013 41.82423338 32.1084005 48.39367844 30 55 C30.53882813 54.83886719 31.07765625 54.67773438 31.6328125 54.51171875 C38.26283977 53.07849503 45.77380759 53.23280337 52 56 C51.56730125 57.8136522 51.12853661 59.62585732 50.6875 61.4375 C50.44386719 62.44683594 50.20023437 63.45617187 49.94921875 64.49609375 C48.80632033 68.714941 47.38220436 72.85338692 46 77 C38.41 77 30.82 77 23 77 C23.77711624 71.56018632 24.69085783 67.60153661 26.5625 62.5625 C27.01753906 61.32628906 27.47257812 60.09007812 27.94140625 58.81640625 C28.29074219 57.88699219 28.64007813 56.95757812 29 56 C28.01 56.33 27.02 56.66 26 57 C24.44578271 57.08106686 22.88832973 57.10756898 21.33203125 57.09765625 C20.43935547 57.09443359 19.54667969 57.09121094 18.62695312 57.08789062 C17.69818359 57.07951172 16.76941406 57.07113281 15.8125 57.0625 C14.40194336 57.05573242 14.40194336 57.05573242 12.96289062 57.04882812 C10.64189992 57.03704645 8.32094193 57.01911114 6 57 C4.02 62.94 2.04 68.88 0 75 C-5.60602301 76.1212046 -6.08056628 75.85464439 -10.5625 72.875 C-11.49191406 72.27429688 -12.42132813 71.67359375 -13.37890625 71.0546875 C-16.17492208 68.86287777 -18.15711743 67.0473218 -20 64 C-19.8046875 61.09765625 -19.8046875 61.09765625 -18.875 58.0625 C-18.56691406 57.010625 -18.25882813 55.95875 -17.94140625 54.875 C-17.25038081 52.76464846 -16.53757348 50.66139691 -15.8125 48.5625 C-14.60155259 44.82914544 -14.60155259 44.82914544 -15 41 C-19.4315423 35.64225111 -25.79912094 32.81971563 -32 30 C-31.52960495 22.16008251 -28.77062812 15.27928865 -26 8 C-18.65803439 10.32980955 -11.44395564 13.4134229 -7 20 C-6.66781678 23.68367467 -7.69330872 26.58249972 -9 30 C-9.56723375 31.60249893 -10.12996971 33.20659934 -10.6875 34.8125 C-10.95949219 35.49957031 -11.23148438 36.18664063 -11.51171875 36.89453125 C-12.1475989 39.63644645 -11.86947413 41.32795756 -11 44 C-6.51780497 49.49983625 -0.53582075 52.56419643 6 55 C7.98279484 48.04699943 9.68882339 41.11120489 11 34 C10.35933594 33.72027344 9.71867187 33.44054688 9.05859375 33.15234375 C3.20463493 30.43910799 -2.49909198 27.64166596 -6 22 C-6.17334337 18.64869484 -5.9469951 17.10432085 -5 14 C-4.68675781 12.89011719 -4.37351562 11.78023437 -4.05078125 10.63671875 C-1.30833978 1.30833978 -1.30833978 1.30833978 0 0 Z " fill="#E1E2E2" transform="translate(58,13)"/>
<path d="M0 0 C11.96742679 9.12493661 11.96742679 9.12493661 13.58203125 13.96875 C16.55203125 14.29875 19.52203125 14.62875 22.58203125 14.96875 C23.65070203 19.2434331 23.27199881 20.11033222 21.48046875 23.890625 C20.07566695 27.13999265 19.18671397 30.5262771 18.23046875 33.9296875 C17.58203125 35.96875 17.58203125 35.96875 16.58203125 36.96875 C14.87430767 37.05588831 13.16304476 37.07575007 11.453125 37.06640625 C10.41865234 37.06318359 9.38417969 37.05996094 8.31835938 37.05664062 C7.22974609 37.04826172 6.14113281 37.03988281 5.01953125 37.03125 C3.38081055 37.02448242 3.38081055 37.02448242 1.70898438 37.01757812 C-1.0000537 37.00574826 -3.70898474 36.98926543 -6.41796875 36.96875 C-4.78774306 30.11364439 -3.05914216 23.50879844 -0.41796875 16.96875 C-1.59359375 17.21625 -1.59359375 17.21625 -2.79296875 17.46875 C-14.71084687 19.11259526 -25.19590812 16.93032115 -35.1328125 9.87890625 C-38.96096348 6.67896466 -42.35530464 3.0546264 -45.8203125 -0.52734375 C-48.85278592 -3.45037452 -51.62500865 -5.26120195 -55.41796875 -7.03125 C-43.42944688 -19.01977187 -11.52961548 -7.88231583 0 0 Z " fill="#3AD165" transform="translate(100.41796875,10.03125)"/>
<path d="M0 0 C2.31 0.33 4.62 0.66 7 1 C7 1.66 7 2.32 7 3 C7.66 3.185625 8.32 3.37125 9 3.5625 C13.31339218 5.62933375 16.51456519 8.76537811 20 12 C17.29381443 23.14948454 17.29381443 23.14948454 15.8125 27.4375 C14.91999557 30.25232168 14.65967445 32.06524459 15 35 C19.49677701 40.58974365 25.5125877 44.16912918 32 47 C30.78880323 54.34686463 28.71328887 61.07189348 26 68 C18.27794048 66.75536996 11.76872454 62.11374941 7 56 C6.88083715 53.08051026 7.13136618 51.71206783 8 49 C8.70851839 46.77089214 9.416836 44.54172047 10.125 42.3125 C10.49882813 41.21550781 10.87265625 40.11851563 11.2578125 38.98828125 C11.99489709 36.02054592 12.23403213 34.74961529 11 32 C6.75105234 26.94172897 1.04439068 24.33003722 -5 22 C-4.36684209 16.87475334 -3.31839344 12.03469229 -1.9375 7.0625 C-1.75123047 6.37865234 -1.56496094 5.69480469 -1.37304688 4.99023438 C-0.91910943 3.32579707 -0.46009084 1.66274688 0 0 Z " fill="#344A4F" transform="translate(38,0)"/>
<path d="M0 0 C0.98097656 0.16371094 1.96195312 0.32742187 2.97265625 0.49609375 C7.14118966 1.09159852 11.23401136 1.11249575 15.4375 1.0625 C16.16904297 1.05798828 16.90058594 1.05347656 17.65429688 1.04882812 C19.43623419 1.03718148 21.21812863 1.01925191 23 1 C20.10933941 14.6332574 20.10933941 14.6332574 17 21 C17.99 20.67 18.98 20.34 20 20 C22.45612954 19.87860509 24.91590196 19.82457808 27.375 19.8125 C28.68210938 19.79832031 29.98921875 19.78414062 31.3359375 19.76953125 C34.73798963 19.9835196 36.96683747 20.51855189 40 22 C39.05428317 25.31623658 38.09134109 28.62721994 37.125 31.9375 C36.85558594 32.88302734 36.58617187 33.82855469 36.30859375 34.80273438 C35.91220703 36.15141602 35.91220703 36.15141602 35.5078125 37.52734375 C35.26691895 38.35999756 35.02602539 39.19265137 34.77783203 40.05053711 C34 42 34 42 32 43 C31.30519531 42.85691406 30.61039063 42.71382812 29.89453125 42.56640625 C26.15014301 41.8336987 22.48428369 41.89339081 18.6875 41.9375 C17.94693359 41.94201172 17.20636719 41.94652344 16.44335938 41.95117188 C14.62887101 41.96287825 12.81442466 41.98081102 11 42 C11.58662104 37.15265772 12.57680347 32.71129236 14.0625 28.0625 C14.42472656 26.91910156 14.78695312 25.77570312 15.16015625 24.59765625 C15.43730469 23.74042969 15.71445313 22.88320313 16 22 C15.113125 22.16113281 14.22625 22.32226562 13.3125 22.48828125 C6.60198545 23.52492913 0.35054613 23.67391416 -6 21 C-5.34065816 16.13451192 -4.03428754 11.74092364 -2.4375 7.125 C-2.20353516 6.43664063 -1.96957031 5.74828125 -1.72851562 5.0390625 C-1.15647501 3.35796355 -0.57881544 1.67877837 0 0 Z " fill="#34494E" transform="translate(77,26)"/>
<path d="M0 0 C1.09441406 -0.00515625 2.18882813 -0.0103125 3.31640625 -0.015625 C6.41836614 0.24837159 8.63526037 0.93498252 11.4375 2.25 C9.96472265 9.73517432 7.86503865 16.39492271 4.4375 23.25 C-3.1525 23.25 -10.7425 23.25 -18.5625 23.25 C-17.59441578 19.23936539 -16.59563627 15.24383697 -15.5625 11.25 C-15.23765625 9.89841797 -15.23765625 9.89841797 -14.90625 8.51953125 C-14.6896875 7.72933594 -14.473125 6.93914063 -14.25 6.125 C-14.06824219 5.42117187 -13.88648437 4.71734375 -13.69921875 3.9921875 C-10.84807151 -0.37761205 -4.70628545 -0.02222567 0 0 Z " fill="#E1E3E2" transform="translate(112.5625,23.75)"/>
<path d="M0 0 C4.63804821 0.50104462 7.43803825 1.6195816 11.1875 4.375 C12.02667969 4.98085938 12.86585937 5.58671875 13.73046875 6.2109375 C17.59963786 9.26098819 17.59963786 9.26098819 19 11 C18.86489381 18.29573416 16.25509562 25.11933616 14 32 C10.49773254 32 10.31840107 31.63490227 7.9375 29.3125 C3.76897531 25.54651525 -0.9186635 23.31062786 -6 21 C-4.11380178 13.96354423 -2.13072305 6.96640656 0 0 Z " fill="#33494E" transform="translate(25,43)"/>
<path d="M0 0 C0.9583374 0.00523682 1.9166748 0.01047363 2.90405273 0.01586914 C4.45576172 0.02070312 4.45576172 0.02070312 6.03881836 0.02563477 C7.12743164 0.03401367 8.21604492 0.04239258 9.33764648 0.05102539 C10.97636719 0.05779297 10.97636719 0.05779297 12.64819336 0.06469727 C15.35723144 0.07652713 18.06616248 0.09300996 20.77514648 0.11352539 C17.60928275 12.04619343 17.60928275 12.04619343 15.77514648 16.73852539 C15.46577148 17.55579102 15.15639648 18.37305664 14.83764648 19.21508789 C13.77514648 21.11352539 13.77514648 21.11352539 10.77514648 22.11352539 C8.09743362 22.20996844 5.45198971 22.25281459 2.77514648 22.23852539 C2.05069336 22.24239258 1.32624023 22.24625977 0.57983398 22.25024414 C-2.61768231 22.24434466 -5.17067959 22.13158337 -8.22485352 21.11352539 C-6.62674667 0.33813642 -6.62674667 0.33813642 0 0 Z " fill="#34494E" transform="translate(66.224853515625,68.886474609375)"/>
<path d="M0 0 C1.4589426 0.47730838 2.91713496 0.95691042 4.375 1.4375 C5.18710937 1.70433594 5.99921875 1.97117187 6.8359375 2.24609375 C9 3 9 3 11 4 C9.36215766 12.19821082 6.88709468 20.10005703 4.375 28.0625 C3.95018168 29.41851359 3.5256999 30.77463265 3.1015625 32.13085938 C2.0715831 35.42179733 1.03706484 38.711287 0 42 C-4 42 -4 42 -5.86572266 40.63110352 C-7.93559265 38.07713641 -9.06140607 36.17418153 -10 33 C-9.28714911 27.02892383 -7.36662546 21.58808807 -5.375 15.9375 C-4.86220612 14.38988614 -4.35305251 12.84106106 -3.84765625 11.29101562 C-2.60676274 7.51203409 -1.31733711 3.75298232 0 0 Z " fill="#EEC71A" transform="translate(18,64)"/>
<path d="M0 0 C1.65 0.33 3.3 0.66 5 1 C4.70230713 1.94319092 4.40461426 2.88638184 4.09790039 3.8581543 C2.99012855 7.37035089 1.88579235 10.88361993 0.7824707 14.3972168 C0.30521216 15.9154136 -0.17296744 17.43332119 -0.65209961 18.95092773 C-1.34212927 21.13709647 -2.02879859 23.32429684 -2.71484375 25.51171875 C-2.92842026 26.18587326 -3.14199677 26.86002777 -3.36204529 27.55461121 C-4.44322746 31.01365968 -5.37237839 34.42946369 -6 38 C-8.11230469 35.98168945 -8.11230469 35.98168945 -10 33 C-9.62905798 30.12363746 -9.12968002 27.98701421 -8.203125 25.29296875 C-7.86169464 24.20487663 -7.86169464 24.20487663 -7.5133667 23.09480286 C-6.78232788 20.78409683 -6.01690136 18.48652227 -5.25 16.1875 C-4.74769059 14.62118145 -4.24766268 13.05412926 -3.75 11.48632812 C-2.52629169 7.64854356 -1.27162836 3.82216057 0 0 Z " fill="#D6A014" transform="translate(18,64)"/>
</svg>
